# xmcd
#
# Track frame offsets: 
#        150
#        9825
#        20950
#        27656
#        43157
#        54582
#        70725
#        88558
#        102366
#        121672
#        135199
#        145870
#        160232
#        176262
#        186422
#        189630
#        202002
#        212187
#
# Disc length: 2951 seconds
#
# Revision: 0
# Processed by: cddbd v1.4PL0 Copyright (c) Steve Scherf et al.
# Submitted via: ExactAudioCopy v0.95a3
#
DISCID=fe0b8512
DTITLE=Johnny Cash with the Carter Family - International Festival of 
DTITLE=Country Music, Wembley Arena - 03.31.86  CD2
DYEAR=1986
DGENRE=Country
TTITLE0=Johnny Cash and June Carter - If I Were a Carpenter (Tim Hardin)
TTITLE1=Johnny Cash and June Carter - Jackson (Jerry Leiber and Billy Edd 
TTITLE1=Wheeler)
TTITLE2=June Carter - June Carter introduction
TTITLE3=June Carter - Wabash Cannonball (A. P. Carter)
TTITLE4=June Carter - San Antonio Rose (Bob Wills)
TTITLE5=The Carter Family (June, Helen, Anita, and Carlene) -  Fifty Mil
TTITLE5=es of Elbow Room (A. P. Carter)
TTITLE6=Anita Carter - I'll Be All Smiles Tonight (A. P. Carter)
TTITLE7=The Carter Family - Foggy Mountain Top (A. P. Carter)
TTITLE8=The Carter Family - Will the Circle Be Unbroken -> Wildwood Fl
TTITLE8=ower (A. P. Carter)
TTITLE9=Johnny Cash and June Carter - Wreck of Old 97 (Lewey, Noell, Wor
TTITLE9=k)
TTITLE10=Thing Called Love (Jerry Hubbard)
TTITLE11=Ballad of Ira Hayes (Pete La Farge)
TTITLE12=Were You There When They Crucified My Lord? (trad.)
TTITLE13=Johnny Cash with John Schneider and the Carter Family - Daddy S
TTITLE13=ang Bass (Carl Perkins)
TTITLE14=Johnny Cash Show Band - Outro
TTITLE15=Casey Jones (Saunders, arr. Siebert and Newton)
TTITLE16=Orange Blossom Special (Ervin Rouse)
TTITLE17=I Walk the Line (J. Cash)
EXTD=Johnny Cash, with:\nThe Carter Family and Carlene Carter\nJohn Schn
EXTD=eider\n\nInternational Festival of Country Music, Wembley Arena, 
EXTD=31 March 1986\n\npre-FM soundboard recording\n\nDisc 2 of 2\n\nTh
EXTD=e band:\n\nBob Wootton, guitar\nJim Soldi, guitar\nJoe Allen, bas
EXTD=s\nEarl Poole Ball, piano\nW. S. Holland, drums\nBob Lewin, keybo
EXTD=ards and horns\nJack Hale, Jr., horns and harmonica\n
EXTT0=
EXTT1=
EXTT2=
EXTT3=
EXTT4=
EXTT5=
EXTT6=
EXTT7=
EXTT8=
EXTT9=
EXTT10=
EXTT11=
EXTT12=
EXTT13=
EXTT14=
EXTT15=
EXTT16=
EXTT17=
PLAYORDER=
